<svg width="40" height="40" viewBox="0 0 40 40" fill="none" xmlns="http://www.w3.org/2000/svg">
<g clip-path="url(#clip0_2726_13605)">
<path d="M17.3403 26.2704H14.0764L16.1163 13.7338H19.3805L17.3403 26.2704ZM11.3306 13.7338L8.21888 22.3565L7.85067 20.4997L7.851 20.5004L6.75274 14.8626C6.75274 14.8626 6.61995 13.7338 5.20445 13.7338H0.0602403L-0.00012207 13.9461C-0.00012207 13.9461 1.57299 14.2733 3.41404 15.379L6.24972 26.2707H9.65047L14.8433 13.7338H11.3306ZM37.003 26.2704H40L37.387 13.7334H34.7632C33.5516 13.7334 33.2565 14.6677 33.2565 14.6677L28.3886 26.2704H31.791L32.4714 24.4082H36.6207L37.003 26.2704ZM33.4114 21.8358L35.1264 17.1443L36.0912 21.8358H33.4114ZM28.6438 16.7485L29.1096 14.0564C29.1096 14.0564 27.6723 13.5098 26.174 13.5098C24.5543 13.5098 20.7078 14.2177 20.7078 17.66C20.7078 20.8988 25.2223 20.939 25.2223 22.6402C25.2223 24.3415 21.173 24.0366 19.8366 22.9639L19.3514 25.7788C19.3514 25.7788 20.8088 26.4867 23.0355 26.4867C25.2628 26.4867 28.623 25.3334 28.623 22.1946C28.623 18.935 24.068 18.6315 24.068 17.2143C24.0683 15.7968 27.2471 15.9789 28.6438 16.7485Z" fill="white"/>
<path d="M7.85104 20.503L6.75278 14.8651C6.75278 14.8651 6.61998 13.7363 5.20448 13.7363H0.0602407L-0.00012207 13.9486C-0.00012207 13.9486 2.4724 14.461 4.84398 16.3809C7.1116 18.2159 7.85104 20.503 7.85104 20.503Z" fill="white"/>
</g>
<defs>
<clipPath id="clip0_2726_13605">
<rect width="40" height="40" fill="white"/>
</clipPath>
</defs>
</svg>
